<svg id="Group_276" data-name="Group 276" xmlns="http://www.w3.org/2000/svg" xmlns:xlink="http://www.w3.org/1999/xlink" width="20" height="22" viewBox="0 0 20 22">
  <defs>
    <clipPath id="clip-path">
      <rect id="Rectangle_7600" data-name="Rectangle 7600" width="20" height="22" rx="2" fill="none" stroke="#fff" stroke-width="1"/>
    </clipPath>
  </defs>
  <path id="Line_54" data-name="Line 54" d="M10,1H0A1,1,0,0,1-1,0,1,1,0,0,1,0-1H10a1,1,0,0,1,1,1A1,1,0,0,1,10,1Z" transform="translate(5 11)" fill="#fff"/>
  <path id="Line_55" data-name="Line 55" d="M10,1H0A1,1,0,0,1-1,0,1,1,0,0,1,0-1H10a1,1,0,0,1,1,1A1,1,0,0,1,10,1Z" transform="translate(5 16)" fill="#fff"/>
  <g id="Group_275" data-name="Group 275">
    <g id="Group_274" data-name="Group 274" clip-path="url(#clip-path)">
      <path id="Path_124515" data-name="Path 124515" d="M7,7H1A1,1,0,0,1,1,5H5V1A1,1,0,0,1,7,1Z" fill="#fff"/>
      <path id="Path_124516" data-name="Path 124516" d="M20,22H0V6A1,1,0,0,1,2,6V20H18V2H6A1,1,0,0,1,6,0H20Z" fill="#fff"/>
      <path id="Line_56" data-name="Line 56" d="M0,6a1,1,0,0,1-.707-.293,1,1,0,0,1,0-1.414l5-5a1,1,0,0,1,1.414,0,1,1,0,0,1,0,1.414l-5,5A1,1,0,0,1,0,6Z" transform="translate(1 1)" fill="#fff"/>
    </g>
  </g>
</svg>
