<?xml version="1.0" encoding="utf-8"?>
<!-- Generator: Adobe Illustrator 26.3.1, SVG Export Plug-In . SVG Version: 6.00 Build 0)  -->
<svg version="1.1"  xmlns="http://www.w3.org/2000/svg" xmlns:xlink="http://www.w3.org/1999/xlink" x="0px" y="0px"
	 viewBox="0 0 28 28" style="enable-background:new 0 0 28 28;" xml:space="preserve">

<path style="fill:#fff;" d="M14.5307617,13.25h-1.1489258c-0.4135742,0-0.75-0.3364258-0.75-0.75s0.3364258-0.75,0.75-0.75H16
	c0.4140625,0,0.75-0.3359375,0.75-0.75s-0.3359375-0.75-0.75-0.75h-1.25V9c0-0.4140625-0.3359375-0.75-0.75-0.75
	S13.25,8.5859375,13.25,9v1.2633057C12.0716553,10.3331299,11.1318359,11.3044434,11.1318359,12.5
	c0,1.2407227,1.0092773,2.25,2.25,2.25h1.1489258c0.4140625,0,0.7504883,0.3369141,0.7504883,0.75s-0.3364258,0.75-0.7504883,0.75
	H12c-0.4140625,0-0.75,0.3359375-0.75,0.75s0.3359375,0.75,0.75,0.75h1.25V19c0,0.4140625,0.3359375,0.75,0.75,0.75
	s0.75-0.3359375,0.75-0.75v-1.2722168c1.1367188-0.1121216,2.03125-1.062561,2.03125-2.2277832
	C16.78125,14.2592773,15.7714844,13.25,14.5307617,13.25z M20.8730469,3H7.1269531C5.402832,3,4,4.402832,4,6.1269531v15.7460938
	C4,23.5976562,5.402832,25,7.1269531,25h13.7460938C22.5976562,25,24,23.5976562,24,21.8730469V6.1269531
	C24,4.402832,22.5976562,3,20.8730469,3z M22,21.8730469C22,22.4941406,21.4941406,23,20.8730469,23H7.1269531
	C6.5053711,23,6,22.4941406,6,21.8730469V6.1269531C6,5.5053711,6.5053711,5,7.1269531,5h13.7460938
	C21.4941406,5,22,5.5053711,22,6.1269531V21.8730469z"/>
</svg>
