<svg xmlns="http://www.w3.org/2000/svg" width="20" height="20" viewBox="0 0 20 20">
  <g id="Group_534" data-name="Group 534" transform="translate(-1236.1 -832.5)">
    <path id="Ellipse_98" data-name="Ellipse 98" d="M9.1-.9a10,10,0,0,1,10,10,10,10,0,0,1-10,10,10,10,0,0,1-10-10,10,10,0,0,1,10-10Zm0,18.349A8.349,8.349,0,1,0,.751,9.1,8.358,8.358,0,0,0,9.1,17.449Z" transform="translate(1237 833.4)" fill="#fff"/>
    <path id="Line_83" data-name="Line 83" d="M0,7A1,1,0,0,1-1,6V0A1,1,0,0,1,0-1,1,1,0,0,1,1,0V6A1,1,0,0,1,0,7Z" transform="translate(1246 838)" fill="#fff"/>
    <path id="Line_84" data-name="Line 84" d="M0,1.542a1,1,0,0,1-1-1V0A1,1,0,0,1,0-1,1,1,0,0,1,1,0V.542a1,1,0,0,1-1,1Z" transform="translate(1246 847.458)" fill="#fff"/>
  </g>
</svg>
