<?xml version="1.0" encoding="utf-8"?>
<!-- Generator: Adobe Illustrator 26.0.1, SVG Export Plug-In . SVG Version: 6.00 Build 0)  -->
<svg version="1.1" xmlns="http://www.w3.org/2000/svg" xmlns:xlink="http://www.w3.org/1999/xlink" x="0px" y="0px"
	 viewBox="0 0 165 90" style="enable-background:new 0 0 165 90;" xml:space="preserve">


	<path style="fill:#6A39E4"  d="M44.3095703,41.8808594l-3.1503906,7h1.3398438l0.6904297-1.6201172h3.5l0.7001953,1.6201172h1.359375
		l-3.1601562-7H44.3095703z M43.6289062,46.2402344l1.3105469-3.0595703l1.3193359,3.0595703H43.6289062z M123.3583984,45.8759766
		c-0.2265625-0.296875-0.5332031-0.5083008-0.9199219-0.6352539c0.2802734-0.1464844,0.5-0.3530273,0.6601562-0.6196289
		s0.2402344-0.5737305,0.2402344-0.9204102c0-0.5664062-0.2236328-1.0112305-0.6699219-1.3349609
		c-0.4472656-0.3232422-1.0839844-0.4848633-1.9101562-0.4848633h-3.2802734v7h3.4804688
		c0.8935547,0,1.5732422-0.1650391,2.0400391-0.4951172s0.7001953-0.7988281,0.7001953-1.4052734
		C123.6992188,46.5410156,123.5849609,46.171875,123.3583984,45.8759766z M118.7792969,42.9008789h1.8398438
		c0.453125,0,0.8007812,0.081543,1.0449219,0.2451172c0.2431641,0.1630859,0.3652344,0.4047852,0.3652344,0.7250977
		c0,0.3129883-0.1220703,0.5512695-0.3652344,0.7148438c-0.2441406,0.1635742-0.5917969,0.2451172-1.0449219,0.2451172h-1.8398438
		V42.9008789z M120.8789062,47.8603516h-2.0996094v-2.0195312h2.0996094c1.0068359,0,1.5097656,0.3369141,1.5097656,1.0097656
		C122.3886719,47.5244141,121.8857422,47.8603516,120.8789062,47.8603516z M99.4023438,35.9753418H65.5976562
		c-1.8511353,0-3.3518066,1.5006714-3.3518066,3.3518066v11.3456421c0,1.8511963,1.5006714,3.3518066,3.3518066,3.3518066
		h33.8046875c1.8511353,0,3.3518066-1.5006104,3.3518066-3.3518066V39.3271484
		C102.7541504,37.4760132,101.253479,35.9753418,99.4023438,35.9753418z"/>

	<path  style="fill:#FFFFFF" d="M80.8904953,50.5342216H67.0737686c-0.8889084,0-1.6095047-0.7206001-1.6095047-1.6095085v-7.8494263
		c0-0.8889084,0.7205963-1.6095085,1.6095047-1.6095085h13.8167267c0.8889008,0,1.6095047,0.7206001,1.6095047,1.6095085v7.8494263
		C82.5,49.8136215,81.7793961,50.5342216,80.8904953,50.5342216z"/>

</svg>
