<?xml version="1.0" encoding="utf-8"?>
<!-- Generator: Adobe Illustrator 26.0.1, SVG Export Plug-In . SVG Version: 6.00 Build 0)  -->
<svg version="1.1" xmlns="http://www.w3.org/2000/svg" xmlns:xlink="http://www.w3.org/1999/xlink" x="0px" y="0px"
	 viewBox="0 0 165 90" style="enable-background:new 0 0 165 90;" xml:space="preserve">

	<rect style="fill:#D5DDE2" x="82.1666641" y="35.9753761" class="st1" width="36.3333321" height="18.0492477"/>

	<path  style="fill:#6A39E4" d="M45.833313,54.0245972h36.333374V35.9753418H45.833313V54.0245972z M103.3486328,45.5019531
		c-0.2265625-0.296875-0.5332031-0.5083008-0.9199219-0.6352539c0.2802734-0.1464844,0.5-0.3530273,0.6601562-0.6196289
		s0.2392578-0.5737305,0.2392578-0.9204102c0-0.5664062-0.2226562-1.0112305-0.6699219-1.3349609
		c-0.4462891-0.3232422-1.0830078-0.4848633-1.9091797-0.4848633H97.46875v7h3.4794922
		c0.8935547,0,1.5732422-0.1650391,2.0400391-0.4951172s0.7001953-0.7983398,0.7001953-1.4047852
		C103.6884766,46.1669922,103.5751953,45.7983398,103.3486328,45.5019531z M98.7685547,42.5268555h1.8398438
		c0.453125,0,0.8017578,0.081543,1.0449219,0.2451172c0.2431641,0.1630859,0.3652344,0.4047852,0.3652344,0.7250977
		c0,0.3129883-0.1220703,0.5512695-0.3652344,0.7148438s-0.5917969,0.2451172-1.0449219,0.2451172h-1.8398438V42.5268555z
		 M100.8681641,47.4868164h-2.0996094v-2.0200195h2.0996094c1.0068359,0,1.5107422,0.3369141,1.5107422,1.0102539
		S101.875,47.4868164,100.8681641,47.4868164z"/>

	<g>
		<path style="fill:#FFFFFF" d="M65.734375,46.8867188h-3.5l-0.6894531,1.6201172h-1.3398438l3.1494141-7h1.2802734l3.1601562,7h-1.3603516
			L65.734375,46.8867188z M65.3046875,45.8666992l-1.3203125-3.0600586l-1.3095703,3.0600586H65.3046875z"/>
	</g>

</svg>
