<?xml version="1.0" encoding="utf-8"?>
<!-- Generator: Adobe Illustrator 26.0.1, SVG Export Plug-In . SVG Version: 6.00 Build 0)  -->
<svg version="1.1" xmlns="http://www.w3.org/2000/svg" xmlns:xlink="http://www.w3.org/1999/xlink" x="0px" y="0px"
	 viewBox="0 0 165 90" style="enable-background:new 0 0 165 90;" xml:space="preserve">

	<rect  style="fill:#D5DDE2" x="68.9921265" y="45" class="st1" width="34.835907" height="1.3333334"/>

	<path  style="fill:#6A39E4" d="M44.3095703,41.8808594l-3.1499023,7h1.3398438l0.6899414-1.6201172h3.5l0.7001953,1.6201172h1.3598633
		l-3.1601562-7H44.3095703z M43.6293945,46.2402344l1.3100586-3.0595703l1.3198242,3.0595703H43.6293945z M123.3583984,45.8759766
		c-0.2265625-0.296875-0.5332031-0.5083008-0.9199219-0.6352539c0.2802734-0.1464844,0.5-0.3530273,0.6601562-0.6196289
		s0.2397461-0.5737305,0.2397461-0.9204102c0-0.5664062-0.2231445-1.0112305-0.6699219-1.3349609
		c-0.4467773-0.3232422-1.0834961-0.4848633-1.909668-0.4848633h-3.2802734v7h3.4799805
		c0.8935547,0,1.5732422-0.1650391,2.0400391-0.4951172s0.7001953-0.7988281,0.7001953-1.4052734
		C123.6987305,46.5410156,123.5849609,46.171875,123.3583984,45.8759766z M118.7788086,42.9008789h1.8398438
		c0.453125,0,0.8012695,0.081543,1.0449219,0.2451172c0.2431641,0.1630859,0.3652344,0.4047852,0.3652344,0.7250977
		c0,0.3129883-0.1220703,0.5512695-0.3652344,0.7148438c-0.2436523,0.1635742-0.5917969,0.2451172-1.0449219,0.2451172h-1.8398438
		V42.9008789z M120.878418,47.8603516h-2.0996094v-2.0195312h2.0996094c1.0068359,0,1.5102539,0.3369141,1.5102539,1.0097656
		C122.3886719,47.5244141,121.8852539,47.8603516,120.878418,47.8603516z M68.9921265,37.8464966
		c-4.3189697,0-7.8201294,3.5012207-7.8201294,7.8201294c0,4.3189697,3.5011597,7.8201904,7.8201294,7.8201904
		s7.8201294-3.5012207,7.8201294-7.8201904C76.8122559,41.3477173,73.3110962,37.8464966,68.9921265,37.8464966z"/>

</svg>
