<?xml version="1.0" encoding="utf-8"?>
<!-- Generator: Adobe Illustrator 26.0.1, SVG Export Plug-In . SVG Version: 6.00 Build 0)  -->
<svg version="1.1" xmlns="http://www.w3.org/2000/svg" xmlns:xlink="http://www.w3.org/1999/xlink" x="0px" y="0px"
	 viewBox="0 0 165 90" style="enable-background:new 0 0 165 90;" xml:space="preserve">

	<path style="fill:#D5DDE2" d="M109.4753876,54.0246239H70.9387131V35.9753761h38.5366745
		c4.9841537,0,9.0246124,4.0404587,9.0246124,9.0246162v0.0000153C118.5,49.9841652,114.4595413,54.0246239,109.4753876,54.0246239z
		"/>

	<path  style="fill:#6A39E4" d="M103.3481445,45.5019531c-0.2265625-0.296875-0.5332031-0.5087891-0.9199219-0.6357422
		c0.2802734-0.1464844,0.5-0.3525391,0.6601562-0.6191406s0.2397461-0.5742188,0.2397461-0.9208984
		c0-0.5664062-0.2231445-1.0107422-0.6699219-1.3349609c-0.4467773-0.3232422-1.0834961-0.484375-1.909668-0.484375h-3.2802734v7
		h3.4799805c0.8935547,0,1.5732422-0.1650391,2.0400391-0.4951172s0.7001953-0.7988281,0.7001953-1.4052734
		C103.6884766,46.1669922,103.574707,45.7978516,103.3481445,45.5019531z M98.7685547,42.5263672h1.8398438
		c0.453125,0,0.8012695,0.0820312,1.0449219,0.2451172c0.2431641,0.1630859,0.3652344,0.4052734,0.3652344,0.7255859
		c0,0.3125-0.1220703,0.5507812-0.3652344,0.7148438c-0.2436523,0.1630859-0.5917969,0.2451172-1.0449219,0.2451172h-1.8398438
		V42.5263672z M100.8681641,47.4863281h-2.0996094v-2.0195312h2.0996094c1.0068359,0,1.5102539,0.3369141,1.5102539,1.0097656
		C102.378418,47.1503906,101.875,47.4863281,100.8681641,47.4863281z M73.1420288,35.9753418H54.8579712
		c-4.9841919,0-9.0246582,4.0404663-9.0246582,9.0246582c0,4.9841309,4.0404663,9.0245972,9.0246582,9.0245972h18.2840576
		c4.9841919,0,9.0246582-4.0404663,9.0246582-9.0245972C82.166687,40.0158081,78.1262207,35.9753418,73.1420288,35.9753418z"/>

	<g>
		<path style="fill:#FFFFFF" d="M65.7348633,46.8867188h-3.5l-0.6899414,1.6201172h-1.3398438l3.1499023-7h1.2797852l3.1601562,7h-1.3598633
			L65.7348633,46.8867188z M65.3046875,45.8662109l-1.3198242-3.0595703l-1.3100586,3.0595703H65.3046875z"/>
	</g>

</svg>
